# xmcd
#
# Track frame offsets:
#	150
#	11597
#	21609
#	34133
#	46466
#	58637
#	70538
#	83279
#	97397
#	110292
#	121390
#	132037
#	143413
#	155688
#	165796
#	180065
#	190597
#	200333
#
# Disc length: 2859
#
# Revision: 4
# Processed by: cddbd v1.5.1PL0 Copyright (c) Steve Scherf et al.
# Submitted via: EasyCDDAExtractor 6.5.2.1
# Normalized: r2:DSETVAR1,TSWAP
#
DISCID=dc0b2912
DTITLE=Various Artist - Country Ladies
DYEAR=1900
DGENRE=Country
TTITLE0=Skeeter Davis - Gonna Get Along Without You Now
TTITLE1=Kitty Wells - I Can't Stop Loving you
TTITLE2=Wanda Jackson - Crazy
TTITLE3=Jeannie Pruett - Satin Sheets
TTITLE4=Lynn Anderson - How Can I Unlove You
TTITLE5=Wilma Burgess - Misty Blue
TTITLE6=Jeannie Seely - I'll Love You More
TTITLE7=Billie Jo Spears - Mr. Walker, It's All Over
TTITLE8=Jeannie C Riley - There Never Was A Time
TTITLE9=Jean Shephard - A Satisfied Mind
TTITLE10=Connie Smith - Ain't Had No Lovin'
TTITLE11=Donna Fargo - Superman
TTITLE12=Sammi Smith - Send Me The Pillow That You Dream On
TTITLE13=Susan Raye - Pitty Pitty Patter
TTITLE14=Margo Smith - It Only Hurts For A Little While
TTITLE15=Barbara Fairchild - Kid Stuff
TTITLE16=Rose Maddox - A Little Song Of Heartache
TTITLE17=Lacy J Dalton - 16th Avenue
EXTD=
EXTT0=
EXTT1=
EXTT2=
EXTT3=
EXTT4=
EXTT5=
EXTT6=
EXTT7=
EXTT8=
EXTT9=
EXTT10=
EXTT11=
EXTT12=
EXTT13=
EXTT14=
EXTT15=
EXTT16=
EXTT17=
PLAYORDER=
